<svg xmlns="http://www.w3.org/2000/svg" viewBox="0 0 1868.31 500"><defs><style>.cls-1{fill:#fff;}.cls-2{fill:#1d1d1b;}</style></defs><g id="Слой_2" data-name="Слой 2"><g id="Слой_2-2" data-name="Слой 2"><circle class="cls-1" cx="250" cy="250" r="240"/><path class="cls-2" d="M250,500A250,250,0,0,1,73.22,73.22,250,250,0,0,1,426.78,426.78,248.36,248.36,0,0,1,250,500Zm0-480A230,230,0,0,0,87.37,412.64,230,230,0,1,0,412.63,87.37,228.44,228.44,0,0,0,250,20Z"/><path class="cls-2" d="M208.27,277.65v19.2H183.7v42.49H163.22V296.85H83.6v-21l82.69-118H183.7V277.65Zm-45.05-88.83h-.52l-60.41,88.83h60.93Z"/><path class="cls-2" d="M265.87,310.93v28.41H237.46V310.93Z"/><path class="cls-2" d="M296.08,229.52a140.33,140.33,0,0,1,2.56-21,102.65,102.65,0,0,1,5.89-19.46A51.65,51.65,0,0,1,315,172.94a47.94,47.94,0,0,1,16.77-11q10.11-4.09,24.19-4.1t24.2,4.1a47.89,47.89,0,0,1,16.76,11,51.68,51.68,0,0,1,10.5,16.13,103.38,103.38,0,0,1,5.89,19.46,143,143,0,0,1,2.56,21q.51,10.75.51,20.74T415.89,271a142.82,142.82,0,0,1-2.56,21,99.9,99.9,0,0,1-5.89,19.33,52,52,0,0,1-10.5,16,46.51,46.51,0,0,1-16.64,10.88q-10,4-24.32,4-14.07,0-24.19-4A46.36,46.36,0,0,1,315,327.31a52,52,0,0,1-10.49-16A99.21,99.21,0,0,1,298.64,292a140.17,140.17,0,0,1-2.56-21q-.51-10.75-.51-20.73T296.08,229.52Zm23.17,43.39a96.3,96.3,0,0,0,4.09,23.81,45.07,45.07,0,0,0,11.14,18.82q7.68,7.68,21.5,7.68t21.51-7.68a45,45,0,0,0,11.13-18.82,96.3,96.3,0,0,0,4.1-23.81q.63-12.68.64-22.91,0-6.66-.13-14.72A128.87,128.87,0,0,0,392,219.15a120.46,120.46,0,0,0-3.33-15.74,41.63,41.63,0,0,0-6.4-13.44,33.11,33.11,0,0,0-10.62-9.35Q365.19,177.05,356,177t-15.61,3.58A33.15,33.15,0,0,0,329.74,190a41.84,41.84,0,0,0-6.4,13.44A118.82,118.82,0,0,0,320,219.15a127,127,0,0,0-1.28,16.13q-.14,8.07-.13,14.72Q318.61,260.25,319.25,272.91Z"/><path class="cls-2" d="M591.92,183.32h19v121l71.8-121h24v142.8h-19V204.72l-72,121.4h-23.8Z"/><path class="cls-2" d="M731.12,222.72h17v41.2h52.4v-41.2h17v103.4h-17v-47.6h-52.4v47.6h-17Z"/><path class="cls-2" d="M826.92,311.12h12.2a71.9,71.9,0,0,0,4.5-11.5q2.29-7.31,4.2-16.2t3.1-18.9a164.49,164.49,0,0,0,1.2-19.6v-22.2h74.8v88.4h14v46.4h-16.2v-31.4h-81.6v31.4h-16.2Zm83,0v-73.4h-41.2v8.8a173.79,173.79,0,0,1-1.1,19.5q-1.1,9.71-2.9,18.3t-3.9,15.6a81.74,81.74,0,0,1-4.1,11.2Z"/><path class="cls-2" d="M963.52,367.32a46.51,46.51,0,0,1-6-.4,28.88,28.88,0,0,1-5.8-1.4v-15.6l4.9,1.6a16.67,16.67,0,0,0,5.1.8,13.67,13.67,0,0,0,8.4-2.4,20.36,20.36,0,0,0,5.6-7l7-17.4-41-102.8h19.2l30.2,84.6h.4l29-84.6h18l-45,117a109.43,109.43,0,0,1-5.9,12.8,35.38,35.38,0,0,1-6.4,8.5,21.84,21.84,0,0,1-7.8,4.8A30,30,0,0,1,963.52,367.32Z"/><path class="cls-2" d="M1091.72,328.32a53.88,53.88,0,0,1-20.9-3.8,40.49,40.49,0,0,1-15.2-10.8,46.71,46.71,0,0,1-9.2-16.6,69.34,69.34,0,0,1-3.1-21.4,75.87,75.87,0,0,1,3-21.7,50.16,50.16,0,0,1,9.1-17.6,42.88,42.88,0,0,1,15.2-11.8q9.09-4.31,21.5-4.3a62.56,62.56,0,0,1,16.5,2.1,40.33,40.33,0,0,1,13.6,6.5,35.54,35.54,0,0,1,9.7,11.1,41,41,0,0,1,4.8,15.9h-17.6q-2-9.81-8.4-15.2t-17.2-5.4q-9.21,0-15.4,3.4a27.4,27.4,0,0,0-9.9,9,37.61,37.61,0,0,0-5.3,12.9,70.14,70.14,0,0,0-1.6,15.1,57.22,57.22,0,0,0,1.7,14,37.45,37.45,0,0,0,5.3,12.1,27.22,27.22,0,0,0,9.3,8.5,28,28,0,0,0,13.9,3.2q12.6,0,19.7-6.6t8.7-18.6h17.4q-2.8,19.4-14.2,29.7T1091.72,328.32Z"/><path class="cls-2" d="M1177.31,237.72h-37v-15h91v15h-37v88.4h-17Z"/><path class="cls-2" d="M1241.51,222.72h17v14h.4a25.47,25.47,0,0,1,13.2-12.5,49.27,49.27,0,0,1,19.8-3.9q12,0,20.9,4.4a42.47,42.47,0,0,1,14.8,11.9,52.37,52.37,0,0,1,8.9,17.3,70.63,70.63,0,0,1,3,20.8,72.46,72.46,0,0,1-2.9,20.9,49.17,49.17,0,0,1-8.8,17,41.45,41.45,0,0,1-14.8,11.5,48,48,0,0,1-20.7,4.2,50.69,50.69,0,0,1-8.6-.8,48.08,48.08,0,0,1-9.2-2.6,36.64,36.64,0,0,1-8.7-4.9,27.63,27.63,0,0,1-6.9-7.7h-.4v53.2h-17Zm49,90.8a29.27,29.27,0,0,0,14.6-3.4,27.13,27.13,0,0,0,9.6-9,39.29,39.29,0,0,0,5.2-12.8,67.86,67.86,0,0,0,1.6-14.8,52.74,52.74,0,0,0-1.9-14.1,38.12,38.12,0,0,0-5.8-12.3,28.36,28.36,0,0,0-10-8.6,30.28,30.28,0,0,0-14.3-3.2,28.06,28.06,0,0,0-24.4,12.3,37.21,37.21,0,0,0-5.5,12.5,60.54,60.54,0,0,0,.1,28.9,36.41,36.41,0,0,0,5.7,12.5,29.14,29.14,0,0,0,10.1,8.7A31.54,31.54,0,0,0,1290.51,313.52Z"/><path class="cls-2" d="M1355.51,222.72h17v84.4l48.8-84.4h21.8v103.4h-17v-84.4l-48.8,84.4h-21.8Z"/><path class="cls-2" d="M1486.51,285.72a27.9,27.9,0,0,1-18-10q-7-8.4-7-21.2,0-14.6,8.7-23.2t23.7-8.6h52.4v103.4h-17v-39.8h-22.6l-31.6,39.8h-22.6Zm42.8-14v-34h-30q-10.8,0-15.6,4.6t-4.8,12.4q0,8,4.8,12.5t15.6,4.5Z"/><path class="cls-2" d="M1709.71,277.92v15h-19.2v33.2h-16v-33.2h-62.2v-16.4l64.6-92.2h13.6v93.6Zm-35.2-69.4h-.4l-47.2,69.4h47.6Z"/><path class="cls-2" d="M1752.71,303.92v22.2h-22.2v-22.2Z"/><path class="cls-2" d="M1774.31,240.32a108.89,108.89,0,0,1,2-16.4,79.79,79.79,0,0,1,4.6-15.2,40.28,40.28,0,0,1,8.2-12.6,37.21,37.21,0,0,1,13.1-8.6q7.89-3.21,18.9-3.2a50.16,50.16,0,0,1,18.9,3.2,37.39,37.39,0,0,1,13.1,8.6,40.46,40.46,0,0,1,8.2,12.6,80.51,80.51,0,0,1,4.6,15.2,111.53,111.53,0,0,1,2,16.4q.39,8.4.4,16.2t-.4,16.2a111.53,111.53,0,0,1-2,16.4,78.21,78.21,0,0,1-4.6,15.1,40.82,40.82,0,0,1-8.2,12.5,36.49,36.49,0,0,1-13,8.5q-7.8,3.09-19,3.1a51.82,51.82,0,0,1-18.9-3.1,36.22,36.22,0,0,1-13.1-8.5,40.64,40.64,0,0,1-8.2-12.5,77.52,77.52,0,0,1-4.6-15.1,108.89,108.89,0,0,1-2-16.4q-.4-8.4-.4-16.2T1774.31,240.32Zm18.1,33.9a75.2,75.2,0,0,0,3.2,18.6,35.13,35.13,0,0,0,8.7,14.7q6,6,16.8,6t16.8-6a35.13,35.13,0,0,0,8.7-14.7,75.67,75.67,0,0,0,3.2-18.6q.5-9.9.5-17.9c0-3.47,0-7.3-.1-11.5a100.89,100.89,0,0,0-1-12.6,94.2,94.2,0,0,0-2.6-12.3,32.74,32.74,0,0,0-5-10.5,25.84,25.84,0,0,0-8.3-7.3,28,28,0,0,0-24.4,0,25.73,25.73,0,0,0-8.3,7.3,32.53,32.53,0,0,0-5,10.5,92.58,92.58,0,0,0-2.6,12.3,99,99,0,0,0-1,12.6q-.1,6.3-.1,11.5Q1791.91,264.31,1792.41,274.22Z"/></g></g></svg>