<svg xmlns="http://www.w3.org/2000/svg" viewBox="0 0 500 500"><defs><style>.cls-1{fill:#1d1d1b;}</style></defs><g id="Слой_2" data-name="Слой 2"><g id="Слой_9" data-name="Слой 9"><path class="cls-1" d="M250,500A250,250,0,0,1,73.22,73.22,250,250,0,0,1,426.78,426.78,248.36,248.36,0,0,1,250,500Zm0-475A225,225,0,0,0,90.9,409.1,225,225,0,0,0,409.1,90.9,223.52,223.52,0,0,0,250,25Z"/><path class="cls-1" d="M80,340.12V156.88h37V340.12Z"/><path class="cls-1" d="M141.31,271.87A71.83,71.83,0,0,1,149.94,238a59.14,59.14,0,0,1,24.44-25,72.51,72.51,0,0,1,35.31-8.62q30.12,0,49.37,19.56t19.25,49.43q0,30.13-19.43,49.94t-48.94,19.81a77.06,77.06,0,0,1-34.81-8.25,56.57,56.57,0,0,1-25.19-24.18Q141.32,294.75,141.31,271.87Zm36,1.88q0,19.75,9.38,30.25a30.65,30.65,0,0,0,46.19,0q9.3-10.5,9.31-30.5,0-19.5-9.31-30a30.65,30.65,0,0,0-46.19,0Q177.32,254,177.31,273.75Z"/><path class="cls-1" d="M344.75,340.12V187.88H290.38v-31H436v31H381.75V340.12Z"/></g></g></svg>