<svg xmlns="http://www.w3.org/2000/svg" viewBox="0 0 500 500"><defs><style>.cls-1{fill:#1d1d1b;}</style></defs><g id="Слой_2" data-name="Слой 2"><g id="Слой_6" data-name="Слой 6"><path class="cls-1" d="M250,500A250,250,0,0,1,73.22,73.22,250,250,0,0,1,426.78,426.78,248.36,248.36,0,0,1,250,500Zm0-475A225,225,0,0,0,90.9,409.1,225,225,0,0,0,409.1,90.9,223.52,223.52,0,0,0,250,25Z"/><path class="cls-1" d="M295.75,341.62H255.5L239.5,300H166.25l-15.12,41.62H111.88l71.37-183.25h39.13Zm-68.12-72.5-25.25-68-24.75,68Z"/><path class="cls-1" d="M311.69,341.62V158.37h37V341.62Z"/></g></g></svg>