<svg xmlns="http://www.w3.org/2000/svg" viewBox="0 0 500 500"><defs><style>.cls-1{fill:#1d1d1b;}</style></defs><g id="Слой_2" data-name="Слой 2"><g id="Слой_5" data-name="Слой 5"><path class="cls-1" d="M250,500A250,250,0,0,1,73.22,73.22,250,250,0,0,1,426.78,426.78,248.36,248.36,0,0,1,250,500Zm0-475A225,225,0,0,0,90.9,409.1,225,225,0,0,0,409.1,90.9,223.52,223.52,0,0,0,250,25Z"/><path class="cls-1" d="M139.59,341.62,74.09,158.38h40.13L160.59,294l44.88-135.62h39.25L179.09,341.62Z"/><path class="cls-1" d="M261.16,341.62V158.38H339q29.37,0,42.69,4.93A42.11,42.11,0,0,1,403,180.88a52.79,52.79,0,0,1,8,28.87q0,20.63-12.12,34.06t-36.25,16.94a86.51,86.51,0,0,1,19.81,15.37q7.81,8.38,21.06,29.76l22.38,35.74H381.66l-26.75-39.87q-14.25-21.37-19.5-26.94a28.4,28.4,0,0,0-11.13-7.62q-5.88-2.07-18.62-2.07h-7.5v76.5Zm37-105.74h27.37q26.63,0,33.25-2.26a19.94,19.94,0,0,0,10.38-7.74q3.75-5.5,3.75-13.76,0-9.24-4.94-14.93T354,190q-4.5-.63-27-.62H298.16Z"/></g></g></svg>