<svg xmlns="http://www.w3.org/2000/svg" viewBox="0 0 1946.04 500"><defs><style>.cls-1{fill:#fff;}.cls-2{fill:#1d1d1b;}</style></defs><g id="Слой_2" data-name="Слой 2"><g id="Слой_3" data-name="Слой 3"><circle class="cls-1" cx="250" cy="250" r="237.5"/><path class="cls-2" d="M250,500A250,250,0,0,1,73.22,73.22,250,250,0,0,1,426.78,426.78,248.36,248.36,0,0,1,250,500Zm0-475A225,225,0,0,0,90.9,409.1,225,225,0,0,0,409.1,90.9,223.52,223.52,0,0,0,250,25Z"/><path class="cls-2" d="M158.31,340.44V303.56h-75V272.81l79.5-116.37h29.5V272.69h22.75v30.87H192.31v36.88Zm0-67.75V210.06l-42.13,62.63Z"/><path class="cls-2" d="M236.75,340.44V305.31h35.13v35.13Z"/><path class="cls-2" d="M357.19,156.44q26.63,0,41.63,19,17.87,22.5,17.87,74.62t-18,74.75q-14.88,18.75-41.5,18.75T314.07,323q-16.38-20.56-16.38-73.31,0-51.75,18-74.5Q330.57,156.44,357.19,156.44Zm0,29.12a17.57,17.57,0,0,0-11.37,4.06q-5,4.06-7.75,14.57-3.63,13.62-3.63,45.87t3.25,44.32q3.26,12.06,8.19,16.06a17.44,17.44,0,0,0,11.31,4,17.62,17.62,0,0,0,11.38-4.06q5-4.06,7.75-14.57,3.62-13.5,3.62-45.75t-3.25-44.31q-3.26-12.06-8.19-16.13A17.33,17.33,0,0,0,357.19,185.56Z"/><path class="cls-2" d="M614.06,186.15h27.05v95.31l58-95.31h28.81V329.31h-27V235.86L643,329.31h-28.9Z"/><path class="cls-2" d="M752.15,225.6h27.44v38h39.26v-38h27.54V329.31H818.85V285.76H779.59v43.55H752.15Z"/><path class="cls-2" d="M955.77,329.31H877.25v27.35H855V306.85h11.23q7-7.82,11.63-24.41t5.46-56.84H967v81.25h11.13v49.81H955.77Zm-15.92-22.46.1-58.69H906.74q-1.66,43-13.67,58.69Z"/><path class="cls-2" d="M982.43,225.6h29.2l24.8,73.63,24.22-73.63h28.42l-36.62,99.81-6.54,18.06a73.62,73.62,0,0,1-6.89,13.87,30,30,0,0,1-7.52,7.76,32.77,32.77,0,0,1-10.45,4.64,54.06,54.06,0,0,1-14,1.66,72.56,72.56,0,0,1-15.53-1.66l-2.44-21.48a61.25,61.25,0,0,0,11.62,1.27q9.57,0,14.16-5.62a39,39,0,0,0,7-14.3Z"/><path class="cls-2" d="M1188.1,256.27l-27,4.88q-1.38-8.1-6.2-12.21t-12.55-4.1q-10.26,0-16.36,7.08t-6.1,23.68q0,18.47,6.2,26.08t16.65,7.61q7.82,0,12.79-4.44t7-15.28l27,4.59q-4.2,18.55-16.11,28t-31.93,9.48q-22.76,0-36.28-14.36t-13.53-39.75q0-25.68,13.58-40t36.72-14.3q18.94,0,30.12,8.15T1188.1,256.27Z"/><path class="cls-2" d="M1192.59,225.6h93.85v22.17h-33.2v81.54H1225.8V247.77h-33.21Z"/><path class="cls-2" d="M1298.07,225.6h25.58v15.24a38.28,38.28,0,0,1,13.48-12.7,37.17,37.17,0,0,1,18.85-4.88q18.06,0,30.66,14.16t12.6,39.45q0,26-12.7,40.38t-30.76,14.41a35,35,0,0,1-15.58-3.42q-7-3.42-14.69-11.72v52.25h-27.44Zm27.14,50.1q0,17.48,6.94,25.83t16.89,8.35a19.84,19.84,0,0,0,15.92-7.67q6.35-7.66,6.35-25.14,0-16.32-6.54-24.22t-16.22-7.91a21,21,0,0,0-16.69,7.76Q1325.22,260.47,1325.21,275.7Z"/><path class="cls-2" d="M1416.33,225.6h26.37v65.14l42.19-65.14h26.95V329.31h-26.37V263l-42.77,66.31h-26.37Z"/><path class="cls-2" d="M1624.83,225.6V329.31h-27.24V286.25h-2.54q-8.9,0-13,2.29t-9.23,9.72l-1.66,2.05-18.07,29h-31.93l19.63-30.08q8.4-12.89,15.23-14.84a26.06,26.06,0,0,1-18.7-8.74q-7.17-8.06-7.17-20.56,0-10.05,4.73-17.18a23.69,23.69,0,0,1,12.6-9.72q7.86-2.58,23.39-2.59Zm-27.24,17.68H1578q-10.85,0-15.24,3.07t-4.39,10.21q0,7.13,5,10.25t16.31,3.13h18Z"/><path class="cls-2" d="M1748.18,329.31V300.5h-58.59v-24l62.1-90.92h23v90.82h17.78V300.5h-17.78v28.81Zm0-52.93V227.46l-32.91,48.92Z"/><path class="cls-2" d="M1807.46,329.31V301.87h27.44v27.44Z"/><path class="cls-2" d="M1899.55,185.56q20.81,0,32.52,14.85,14,17.57,14,58.3T1932,317.11q-11.62,14.64-32.43,14.64t-33.69-16.06q-12.79-16.06-12.79-57.28,0-40.43,14.06-58.2Q1878.76,185.57,1899.55,185.56Zm0,22.76a13.71,13.71,0,0,0-8.88,3.17q-3.92,3.18-6.06,11.38-2.83,10.63-2.83,35.84t2.54,34.62q2.54,9.42,6.4,12.55a14.05,14.05,0,0,0,17.72-.05q3.9-3.18,6.06-11.38,2.82-10.54,2.83-35.74t-2.54-34.62q-2.54-9.42-6.4-12.6A13.55,13.55,0,0,0,1899.55,208.32Z"/></g></g></svg>