<svg xmlns="http://www.w3.org/2000/svg" viewBox="0 0 500 500"><defs><style>.cls-1{fill:#1d1d1b;}</style></defs><g id="Слой_2" data-name="Слой 2"><g id="Слой_7" data-name="Слой 7"><path class="cls-1" d="M250,500A250,250,0,0,1,73.22,73.22,250,250,0,0,1,426.78,426.78,248.36,248.36,0,0,1,250,500Zm0-475A225,225,0,0,0,90.9,409.1,225,225,0,0,0,409.1,90.9,223.52,223.52,0,0,0,250,25Z"/><path class="cls-1" d="M80.47,341.62V158.38h77.87q29.37,0,42.69,4.93a42.15,42.15,0,0,1,21.31,17.57,52.79,52.79,0,0,1,8,28.87q0,20.63-12.12,34.06T182,260.75a86.51,86.51,0,0,1,19.81,15.37q7.82,8.38,21.06,29.76l22.38,35.74H201l-26.75-39.87q-14.25-21.37-19.5-26.94a28.4,28.4,0,0,0-11.13-7.62q-5.88-2.07-18.62-2.07h-7.5v76.5Zm37-105.74h27.37q26.63,0,33.25-2.26a19.94,19.94,0,0,0,10.38-7.74q3.75-5.5,3.75-13.76,0-9.24-4.94-14.93T173.34,190q-4.5-.63-27-.62H117.47Z"/><path class="cls-1" d="M262.78,341.62V158.38h77.88q29.37,0,42.69,4.93a42.19,42.19,0,0,1,21.31,17.57,52.79,52.79,0,0,1,8,28.87q0,20.63-12.13,34.06t-36.25,16.94a86.58,86.58,0,0,1,19.82,15.37q7.8,8.38,21.06,29.76l22.37,35.74H383.28l-26.75-39.87q-14.25-21.37-19.5-26.94a28.45,28.45,0,0,0-11.12-7.62q-5.88-2.07-18.63-2.07h-7.5v76.5Zm37-105.74h27.38q26.63,0,33.25-2.26a20,20,0,0,0,10.37-7.74q3.75-5.5,3.75-13.76,0-9.24-4.93-14.93T355.66,190q-4.5-.63-27-.62H299.78Z"/></g></g></svg>