<svg xmlns="http://www.w3.org/2000/svg" viewBox="0 0 500 500"><defs><style>.cls-1{fill:#fff;}.cls-2{fill:#1d1d1b;}</style></defs><g id="Слой_2" data-name="Слой 2"><g id="Слой_2-2" data-name="Слой 2"><circle class="cls-1" cx="250" cy="250" r="237.5"/><path class="cls-2" d="M250,500A250,250,0,0,1,73.22,73.22,250,250,0,0,1,426.78,426.78,248.36,248.36,0,0,1,250,500Zm0-475A225,225,0,0,0,90.9,409.1,225,225,0,0,0,409.1,90.9,223.52,223.52,0,0,0,250,25Z"/><path class="cls-2" d="M158.31,340.44V303.56h-75V272.81l79.5-116.37h29.5V272.69h22.75v30.87H192.31v36.88Zm0-67.75V210.06l-42.13,62.63Z"/><path class="cls-2" d="M236.75,340.44V305.31h35.13v35.13Z"/><path class="cls-2" d="M357.19,156.44q26.63,0,41.63,19,17.87,22.5,17.87,74.62t-18,74.75q-14.88,18.75-41.5,18.75T314.07,323q-16.38-20.56-16.38-73.31,0-51.75,18-74.5Q330.57,156.44,357.19,156.44Zm0,29.12a17.57,17.57,0,0,0-11.37,4.06q-5,4.06-7.75,14.57-3.63,13.62-3.63,45.87t3.25,44.32q3.26,12.06,8.19,16.06a17.44,17.44,0,0,0,11.31,4,17.62,17.62,0,0,0,11.38-4.06q5-4.06,7.75-14.57,3.62-13.5,3.62-45.75t-3.25-44.31q-3.26-12.06-8.19-16.13A17.33,17.33,0,0,0,357.19,185.56Z"/></g></g></svg>